<svg width="26" height="32" viewBox="0 0 26 32" fill="none" xmlns="http://www.w3.org/2000/svg">
<g clip-path="url(#clip0_1204_1367)">
<path d="M5.16945 25.0349C5.16945 26.1774 4.24065 27.1083 3.08894 27.1083C1.93722 27.1083 1.00842 26.1827 1.00842 25.0349C1.00842 23.8924 1.93722 22.9614 3.08894 22.9614C4.24065 22.9614 5.16945 23.8924 5.16945 25.0349Z" fill="#0072FA"/>
<path d="M2.53702 21.6918C3.18189 21.6918 3.70466 21.1709 3.70466 20.5282C3.70466 19.8855 3.18189 19.3645 2.53702 19.3645C1.89215 19.3645 1.36938 19.8855 1.36938 20.5282C1.36938 21.1709 1.89215 21.6918 2.53702 21.6918Z" fill="#0072FA"/>
<path d="M10.7952 29.0759C10.7952 30.6944 9.47895 32.0062 7.85487 32.0062C6.2308 32.0062 4.91455 30.6944 4.91455 29.0759C4.91455 27.4573 6.2308 26.1455 7.85487 26.1455C9.47895 26.1455 10.7952 27.4573 10.7952 29.0759Z" fill="#0072FA"/>
<path d="M7.26588 9.10302C7.26588 7.659 8.15222 6.40012 10.323 5.82886C11.5914 5.49562 12.5043 4.40071 12.5043 3.09951V2.91438C12.5043 1.05778 10.79 -0.30689 8.96426 0.0580812C2.9244 1.26936 0 5.06189 0 9.45741C0 21.1471 18.3637 17.1006 18.3637 22.9931C18.3637 24.4953 17.2916 25.7066 14.76 26.1667C13.3323 26.4259 12.2708 27.6213 12.2708 29.0653C12.2708 30.8426 13.8524 32.2337 15.6198 31.9745C22.3443 30.9854 25.619 27.0025 25.619 22.4536C25.6243 10.9014 7.26588 14.9002 7.26588 9.10302Z" fill="#0072FA"/>
<path d="M19.7437 6.97141C19.7437 5.82889 20.6725 4.89795 21.8242 4.89795C22.9706 4.89795 23.9047 5.8236 23.9047 6.97141C23.9047 8.11921 22.9759 9.04486 21.8242 9.04486C20.6778 9.04486 19.7437 8.11921 19.7437 6.97141Z" fill="#0072FA"/>
<path d="M22.3815 12.6469C23.0264 12.6469 23.5491 12.1259 23.5491 11.4833C23.5491 10.8406 23.0264 10.3196 22.3815 10.3196C21.7366 10.3196 21.2139 10.8406 21.2139 11.4833C21.2139 12.1259 21.7366 12.6469 22.3815 12.6469Z" fill="#0072FA"/>
<path d="M14.1178 2.93035C14.1178 1.31178 15.4393 0 17.0634 0C18.6875 0 20.0037 1.31178 20.0037 2.93035C20.0037 4.54891 18.6875 5.86069 17.0634 5.86069C15.4393 5.86069 14.1178 4.54891 14.1178 2.93035Z" fill="#0072FA"/>
</g>
<defs>
<clipPath id="clip0_1204_1367">
<rect width="25.6243" height="32.0064" fill="white"/>
</clipPath>
</defs>
</svg>
